<?xml version="1.0" encoding="UTF-8" standalone="no"?>
<!-- Created with Inkscape (http://www.inkscape.org/) -->

<svg
   width="174.05965mm"
   height="39.163441mm"
   viewBox="0 0 174.05963 39.163442"
   version="1.1"
   id="svg1"
   inkscape:version="1.4.2 (f4327f4, 2025-05-13)"
   sodipodi:docname="ainhoa-gomez-vallejo.svg"
   xmlns:inkscape="http://www.inkscape.org/namespaces/inkscape"
   xmlns:sodipodi="http://sodipodi.sourceforge.net/DTD/sodipodi-0.dtd"
   xmlns="http://www.w3.org/2000/svg"
   xmlns:svg="http://www.w3.org/2000/svg">
  <sodipodi:namedview
     id="namedview1"
     pagecolor="#ffffff"
     bordercolor="#000000"
     borderopacity="0.25"
     inkscape:showpageshadow="2"
     inkscape:pageopacity="0.0"
     inkscape:pagecheckerboard="0"
     inkscape:deskcolor="#d1d1d1"
     inkscape:document-units="mm"
     inkscape:zoom="1.3380612"
     inkscape:cx="236.1626"
     inkscape:cy="127.42317"
     inkscape:window-width="1902"
     inkscape:window-height="973"
     inkscape:window-x="0"
     inkscape:window-y="0"
     inkscape:window-maximized="0"
     inkscape:current-layer="layer1" />
  <defs
     id="defs1">
    <clipPath
       clipPathUnits="userSpaceOnUse"
       id="clipPath5-6">
      <path
         d="M 0,595.28 H 1683.78 V 0 H 0 Z"
         transform="translate(-1223.6971,-75.118199)"
         id="path5-8" />
    </clipPath>
  </defs>
  <g
     inkscape:label="Capa 1"
     inkscape:groupmode="layer"
     id="layer1"
     transform="translate(-36.503435,-94.034778)">
    <path
       id="path2-13"
       d="m 86.722173,103.5522 h -5.073658 l -1.745048,4.40919 h -0.962555 l 5.023982,-12.538221 h 0.552691 l 4.91841,12.538221 h -0.981197 z m -4.756943,-0.78247 h 4.465074 l -1.701575,-4.502322 c -0.141203,-0.350875 -0.310496,-0.839919 -0.509233,-1.465585 -0.153701,0.546487 -0.321373,1.041735 -0.503014,1.484212 z m 9.237549,5.19166 V 95.479064 h 0.869406 v 12.482326 z m 13.480591,0 h -0.87563 L 96.411497,96.87633 h -0.06835 c 0.06519,1.321213 0.09929,2.316381 0.09929,2.987065 v 8.097995 H 95.610288 V 95.479064 h 0.869423 l 7.383819,11.066416 h 0.0559 c -0.0543,-1.02622 -0.0806,-2.00122 -0.0806,-2.92497 v -8.141446 h 0.84457 z m 12.57703,0 h -0.88183 v -6.14181 h -7.29067 v 6.14181 h -0.86942 V 95.479064 h 0.86942 v 5.539416 h 7.29067 v -5.539416 h 0.88183 z m 14.02708,-6.25979 c 0,1.98412 -0.49681,3.55217 -1.49042,4.70726 -0.99052,1.15197 -2.35674,1.7264 -4.09868,1.7264 -1.73572,0 -3.09884,-0.57443 -4.09245,-1.7264 -0.99053,-1.15509 -1.48423,-2.72934 -1.48423,-4.7259 0,-1.987235 0.49838,-3.549079 1.49663,-4.688634 1.00139,-1.14265 2.36763,-1.713983 4.09869,-1.713983 1.74194,0 3.10661,0.574427 4.09246,1.720202 0.98431,1.147306 1.478,2.713821 1.478,4.701055 z m -10.21563,0 c 0,1.78851 0.39745,3.1718 1.19234,4.14834 0.79801,0.97343 1.94377,1.45938 3.43419,1.45938 1.50285,0 2.65172,-0.48128 3.44661,-1.44696 0.7949,-0.96876 1.19235,-2.35517 1.19235,-4.16076 0,-1.796279 -0.39745,-3.174919 -1.19235,-4.135942 -0.79489,-0.959461 -1.93755,-1.44074 -3.42797,-1.44074 -1.48732,0 -2.63308,0.484388 -3.44041,1.453163 -0.80421,0.968775 -1.20476,2.344319 -1.20476,4.123519 z m 19.10231,1.8506 h -5.07366 l -1.74505,4.40919 h -0.96257 l 5.02399,-12.538221 h 0.5527 l 4.91841,12.538221 h -0.98119 z m -4.75694,-0.78247 h 4.46507 l -1.70157,-4.502322 c -0.14121,-0.350875 -0.31052,-0.839919 -0.50924,-1.465585 -0.1537,0.546487 -0.32137,1.041735 -0.50301,1.484212 z m -49.800443,19.88634 h 4.601694 v 5.69466 c -1.204763,0.51389 -2.561667,0.77005 -4.06763,0.77005 -1.971708,0 -3.482313,-0.5558 -4.533376,-1.67052 -1.05261,-1.11316 -1.577376,-2.68898 -1.577376,-4.7259 0,-1.26995 0.260835,-2.3971 0.782477,-3.3783 0.521655,-0.98119 1.266863,-1.73882 2.235638,-2.27289 0.971884,-0.53718 2.088156,-0.80732 3.347254,-0.80732 1.356918,0 2.578747,0.25151 3.66397,0.75143 l -0.353971,0.78867 c -1.080564,-0.4999 -2.201493,-0.75141 -3.359676,-0.75141 -1.648788,0 -2.954468,0.50767 -3.918586,1.52147 -0.965665,1.01536 -1.446958,2.38468 -1.446958,4.1111 0,1.88011 0.456447,3.29447 1.372436,4.24151 0.919098,0.94859 2.266703,1.42211 4.042785,1.42211 1.150431,0 2.125409,-0.16301 2.924965,-0.4906 v -4.38434 h -3.713646 z m 18.232883,0.031 c 0,1.98414 -0.49681,3.55218 -1.49042,4.70728 -0.99052,1.15196 -2.35673,1.72639 -4.098671,1.72639 -1.735734,0 -3.098856,-0.57443 -4.092461,-1.72639 -0.990526,-1.1551 -1.484227,-2.72937 -1.484227,-4.72592 0,-1.98722 0.498357,-3.54906 1.496634,-4.68862 1.001388,-1.14266 2.367604,-1.71399 4.098681,-1.71399 1.741934,0 3.106614,0.57443 4.092464,1.72019 0.98431,1.14733 1.478,2.71383 1.478,4.70106 z m -10.215631,0 c 0,1.78851 0.397442,3.17182 1.192342,4.14835 0.798008,0.97344 1.943768,1.45938 3.434198,1.45938 1.502838,0 2.651711,-0.48128 3.446611,-1.44696 0.7949,-0.96878 1.19234,-2.35518 1.19234,-4.16077 0,-1.79628 -0.39744,-3.17492 -1.19234,-4.13593 -0.7949,-0.95946 -1.937554,-1.44075 -3.427984,-1.44075 -1.487321,0 -2.633096,0.48439 -3.440403,1.45316 -0.804213,0.96879 -1.204764,2.34432 -1.204764,4.12352 z m 18.569781,6.25978 -4.65758,-11.52595 h -0.0683 c 0.0451,0.70484 0.0683,1.42677 0.0683,2.16732 v 9.35863 h -0.83215 v -12.48232 h 1.34759 l 4.4216,10.97949 h 0.0497 l 4.42782,-10.97949 h 1.31033 v 12.48232 h -0.87563 v -9.4642 c 0,-0.65827 0.0326,-1.34137 0.0993,-2.04933 h -0.0683 l -4.67002,11.51353 z m 16.42109,0 h -6.81871 v -12.48232 h 6.81871 v 0.80112 h -5.94928 v 4.71968 h 5.62015 v 0.80732 h -5.62015 v 5.3531 h 5.94928 z m 10.4423,0 h -8.67553 v -0.65205 l 7.30931,-11.01052 h -6.98017 v -0.81975 h 8.14767 v 0.64586 l -7.32793,11.01674 h 7.52665 z m 14.38882,-12.48232 h 0.94395 l -4.67,12.48232 h -0.77005 l -4.65138,-12.48232 h 0.93151 l 3.14233,8.49544 c 0.47506,1.27928 0.79645,2.24185 0.96256,2.88771 0.11491,-0.43006 0.34155,-1.09454 0.6769,-1.99346 z m 8.72522,8.07315 h -5.07366 l -1.74504,4.40917 h -0.96257 l 5.02398,-12.5382 h 0.55269 l 4.91841,12.5382 h -0.9812 z m -4.75694,-0.78246 h 4.46506 l -1.70156,-4.50234 c -0.14136,-0.35087 -0.31051,-0.83993 -0.50923,-1.46559 -0.1537,0.54649 -0.32138,1.04175 -0.50303,1.48421 z m 9.23753,5.19163 v -12.48232 h 0.86943 v 11.6626 h 5.94928 v 0.81972 z m 8.97206,0 v -12.48232 h 0.86942 v 11.6626 h 5.94929 v 0.81972 z m 15.78921,0 h -6.8187 v -12.48232 h 6.8187 v 0.80112 h -5.94928 v 4.71968 h 5.62015 v 0.80732 h -5.62015 v 5.3531 h 5.94928 z m 0.78557,3.14854 c -0.52475,0 -0.95634,-0.0777 -1.29169,-0.22977 v -0.75143 c 0.44401,0.11492 0.86786,0.17389 1.27307,0.17389 1.37864,0 2.06797,-0.75143 2.06797,-2.25428 v -12.56927 h 0.86942 v 12.48232 c 0,2.09904 -0.97345,3.14854 -2.91877,3.14854 z m 16.86357,-9.40832 c 0,1.98414 -0.49681,3.55218 -1.49044,4.70728 -0.9905,1.15196 -2.35673,1.72639 -4.09866,1.72639 -1.73574,0 -3.09886,-0.57443 -4.09246,-1.72639 -0.99051,-1.1551 -1.48423,-2.72937 -1.48423,-4.7259 0,-1.98724 0.49837,-3.54908 1.49665,-4.68864 1.00137,-1.14266 2.3676,-1.71399 4.09866,-1.71399 1.74194,0 3.10661,0.57443 4.09247,1.72019 0.9843,1.14733 1.47801,2.71383 1.47801,4.70106 z m -10.21564,0 c 0,1.78851 0.39746,3.17182 1.19235,4.14836 0.798,0.97343 1.94376,1.45937 3.43419,1.45937 1.50284,0 2.65171,-0.48128 3.44661,-1.44696 0.7949,-0.96878 1.19234,-2.35518 1.19234,-4.16077 0,-1.79628 -0.39744,-3.17492 -1.19234,-4.13593 -0.7949,-0.95946 -1.93755,-1.44075 -3.42799,-1.44075 -1.48732,0 -2.63309,0.48439 -3.44039,1.45318 -0.80422,0.96877 -1.20477,2.3443 -1.20477,4.1235 z m 0,0"
       style="fill:#231f20;fill-opacity:1;fill-rule:nonzero;stroke:none;stroke-width:0.52993"
       aria-label="AINHOA&#10;GOMEZ VALLEJO" />
    <path
       id="path4-7"
       d="m 0,0 c 5.331,1.316 8.972,3.712 11.303,5.833 4.076,3.707 6.509,8.785 6.509,13.582 0,4.016 -1.68,7.174 -4.474,8.918 h 8.951 v 2 h -14.5 v -0.5 -1 -0.5 h 3.227 c 3.6,-1.183 5.796,-4.42 5.796,-8.918 0,-4.52 -2.311,-9.321 -6.181,-12.843 C 7.335,3.574 1.313,0 -8.665,0 c -24.096,0 -33.372,14.162 -34.019,27.416 -0.025,0.511 -0.037,1.024 -0.038,1.539 v 0.02 c -0.009,16.043 11.767,33.249 32.341,35.26 C -4.128,64.849 1.27,64.376 5.933,63.148 3.009,55.057 -0.532,46.937 -4.702,40.134 -19.372,16.197 -32.26,11.1 -32.388,11.051 l 0.353,-0.936 c 0.536,0.202 13.31,5.223 28.186,29.495 C 0.369,46.493 3.947,54.705 6.897,62.882 23.38,58.07 30.324,43.687 33.051,35.179 l 1.6,-6.502 V 0 Z M -42.722,21.044 C -40.271,11.615 -33.106,2.883 -19.122,0 h -23.6 z m 59.582,83.289 -0.329,-1.874 C 16.484,102.189 13.125,83.371 6.277,64.108 1.492,65.372 -4.057,65.859 -10.478,65.231 -28.095,63.508 -39.431,50.942 -42.722,37.258 v 67.075 z M 31.288,42.338 C 27.38,50.513 20.188,60.06 7.24,63.841 c 5.49,15.457 8.739,30.596 9.846,36.187 z M 34.651,33.3 c -0.181,0.662 -0.391,1.378 -0.636,2.144 L 17.056,104.333 H 34.651 Z M -43.722,-1 h 79.373 v 106.333 h -79.373 z"
       style="fill:#231f20;fill-opacity:1;fill-rule:nonzero;stroke:none"
       transform="matrix(0.35277776,0,0,-0.35277776,53.211842,132.03423)"
       clip-path="url(#clipPath5-6)" />
  </g>
</svg>
